HIERARCHY
ROOT Hips
{
	OFFSET -14.64140 90.27770 -84.91600
	CHANNELS 6 Xposition Yposition Zposition Zrotation Xrotation Yrotation
	JOINT Spine
	{
		OFFSET 0.00000 13.20850 -1.60436
		CHANNELS 3 Zrotation Xrotation Yrotation
		JOINT Spine1
		{
			OFFSET 0.00000 8.61716 0.00000
			CHANNELS 3 Zrotation Xrotation Yrotation
			JOINT Spine2
			{
				OFFSET 0.00000 8.61717 0.00000
				CHANNELS 3 Zrotation Xrotation Yrotation
				JOINT Spine3
				{
					OFFSET 0.00000 8.61717 0.00000
					CHANNELS 3 Zrotation Xrotation Yrotation
					JOINT Neck
					{
						OFFSET 0.00000 11.07920 1.10792
						CHANNELS 3 Zrotation Xrotation Yrotation
						JOINT Neck1
						{
							OFFSET 0.00000 7.08032 0.00000
							CHANNELS 3 Zrotation Xrotation Yrotation
							JOINT Head
							{
								OFFSET 0.00000 7.08031 0.00000
								CHANNELS 3 Zrotation Xrotation Yrotation
								End site
								{
									OFFSET 0.00000 0.00000 0.00000
								}
							}
						}
					}
					JOINT RightShoulder
					{
						OFFSET -0.01000 7.91373 5.19711
						CHANNELS 3 Zrotation Xrotation Yrotation
						JOINT RightArm
						{
							OFFSET -18.41580 0.00000 0.00000
							CHANNELS 3 Zrotation Xrotation Yrotation
							JOINT RightForeArm
							{
								OFFSET -29.11090 0.00000 0.00000
								CHANNELS 3 Zrotation Xrotation Yrotation
								JOINT RightHand
								{
									OFFSET -24.65040 0.00000 0.00000
									CHANNELS 3 Zrotation Xrotation Yrotation
									JOINT RightHandThumb1
									{
										OFFSET -5.35114 -0.85590 3.97906
										CHANNELS 3 Zrotation Xrotation Yrotation
										JOINT RightHandThumb2
										{
											OFFSET -4.52789 0.00000 0.00000
											CHANNELS 3 Zrotation Xrotation Yrotation
											JOINT RightHandThumb3
											{
												OFFSET -2.46976 0.00000 0.00000
												CHANNELS 3 Zrotation Xrotation Yrotation
												End site
												{
													OFFSET 0.00000 0.00000 0.00000
												}
											}
										}
									}
									JOINT RightHandIndex1
									{
										OFFSET -14.26970 0.00000 2.88139
										CHANNELS 3 Zrotation Xrotation Yrotation
										JOINT RightHandIndex2
										{
											OFFSET -5.48836 0.00000 0.00000
											CHANNELS 3 Zrotation Xrotation Yrotation
											JOINT RightHandIndex3
											{
												OFFSET -3.01859 0.00000 0.00000
												CHANNELS 3 Zrotation Xrotation Yrotation
												End site
												{
													OFFSET 0.00000 0.00000 0.00000
												}
											}
										}
									}
									JOINT RightHandMiddle1
									{
										OFFSET -14.26970 0.00000 -0.09147
										CHANNELS 3 Zrotation Xrotation Yrotation
										JOINT RightHandMiddle2
										{
											OFFSET -6.17441 0.00000 0.00000
											CHANNELS 3 Zrotation Xrotation Yrotation
											JOINT RightHandMiddle3
											{
												OFFSET -3.56743 0.00000 0.00000
												CHANNELS 3 Zrotation Xrotation Yrotation
												End site
												{
													OFFSET 0.00000 0.00000 0.00000
												}
											}
										}
									}
									JOINT RightHandRing1
									{
										OFFSET -12.69180 0.00000 -3.06433
										CHANNELS 3 Zrotation Xrotation Yrotation
										JOINT RightHandRing2
										{
											OFFSET -5.62556 0.00000 0.00000
											CHANNELS 3 Zrotation Xrotation Yrotation
											JOINT RightHandRing3
											{
												OFFSET -3.56744 0.00000 0.00000
												CHANNELS 3 Zrotation Xrotation Yrotation
												End site
												{
													OFFSET 0.00000 0.00000 0.00000
												}
											}
										}
									}
									JOINT RightHandPinky1
									{
										OFFSET -11.11390 0.00000 -6.03719
										CHANNELS 3 Zrotation Xrotation Yrotation
										JOINT RightHandPinky2
										{
											OFFSET -4.52789 0.00000 0.00000
											CHANNELS 3 Zrotation Xrotation Yrotation
											JOINT RightHandPinky3
											{
												OFFSET -2.46976 0.00000 0.00000
												CHANNELS 3 Zrotation Xrotation Yrotation
												End site
												{
													OFFSET 0.00000 0.00000 0.00000
												}
											}
										}
									}
								}
							}
						}
					}
					JOINT LeftShoulder
					{
						OFFSET 0.01000 7.91373 5.19711
						CHANNELS 3 Zrotation Xrotation Yrotation
						JOINT LeftArm
						{
							OFFSET 18.41580 0.00000 0.00000
							CHANNELS 3 Zrotation Xrotation Yrotation
							JOINT LeftForeArm
							{
								OFFSET 29.11090 0.00000 0.00000
								CHANNELS 3 Zrotation Xrotation Yrotation
								JOINT LeftHand
								{
									OFFSET 24.65040 0.00000 0.00000
									CHANNELS 3 Zrotation Xrotation Yrotation
									JOINT LeftHandThumb1
									{
										OFFSET 5.35114 -0.85590 3.97906
										CHANNELS 3 Zrotation Xrotation Yrotation
										JOINT LeftHandThumb2
										{
											OFFSET 4.52789 0.00000 0.00000
											CHANNELS 3 Zrotation Xrotation Yrotation
											JOINT LeftHandThumb3
											{
												OFFSET 2.46977 0.00000 0.00000
												CHANNELS 3 Zrotation Xrotation Yrotation
												End site
												{
													OFFSET 0.00000 0.00000 0.00000
												}
											}
										}
									}
									JOINT LeftHandIndex1
									{
										OFFSET 14.26970 0.00000 2.88139
										CHANNELS 3 Zrotation Xrotation Yrotation
										JOINT LeftHandIndex2
										{
											OFFSET 5.48836 0.00000 0.00000
											CHANNELS 3 Zrotation Xrotation Yrotation
											JOINT LeftHandIndex3
											{
												OFFSET 3.01859 0.00000 0.00000
												CHANNELS 3 Zrotation Xrotation Yrotation
												End site
												{
													OFFSET 0.00000 0.00000 0.00000
												}
											}
										}
									}
									JOINT LeftHandMiddle1
									{
										OFFSET 14.26970 0.00000 -0.09147
										CHANNELS 3 Zrotation Xrotation Yrotation
										JOINT LeftHandMiddle2
										{
											OFFSET 6.17440 0.00000 0.00000
											CHANNELS 3 Zrotation Xrotation Yrotation
											JOINT LeftHandMiddle3
											{
												OFFSET 3.56744 0.00000 0.00000
												CHANNELS 3 Zrotation Xrotation Yrotation
												End site
												{
													OFFSET 0.00000 0.00000 0.00000
												}
											}
										}
									}
									JOINT LeftHandRing1
									{
										OFFSET 12.69180 0.00000 -3.06433
										CHANNELS 3 Zrotation Xrotation Yrotation
										JOINT LeftHandRing2
										{
											OFFSET 5.62556 0.00000 0.00000
											CHANNELS 3 Zrotation Xrotation Yrotation
											JOINT LeftHandRing3
											{
												OFFSET 3.56744 0.00000 0.00000
												CHANNELS 3 Zrotation Xrotation Yrotation
												End site
												{
													OFFSET 0.00000 0.00000 0.00000
												}
											}
										}
									}
									JOINT LeftHandPinky1
									{
										OFFSET 11.11390 0.00000 -6.03719
										CHANNELS 3 Zrotation Xrotation Yrotation
										JOINT LeftHandPinky2
										{
											OFFSET 4.52789 0.00000 0.00000
											CHANNELS 3 Zrotation Xrotation Yrotation
											JOINT LeftHandPinky3
											{
												OFFSET 2.46976 0.00000 0.00000
												CHANNELS 3 Zrotation Xrotation Yrotation
												End site
												{
													OFFSET 0.00000 0.00000 0.00000
												}
											}
										}
									}
								}
							}
						}
					}
					JOINT pCube4
					{
						OFFSET 0.00000 10.91090 1.10792
						CHANNELS 3 Zrotation Xrotation Yrotation
						End site
						{
							OFFSET 0.00000 0.00000 0.00000
						}
					}
				}
			}
		}
	}
	JOINT RightUpLeg
	{
		OFFSET -9.98441 0.00000 0.00000
		CHANNELS 3 Zrotation Xrotation Yrotation
		JOINT RightLeg
		{
			OFFSET 0.00000 -42.11790 0.00000
			CHANNELS 3 Zrotation Xrotation Yrotation
			JOINT RightFoot
			{
				OFFSET 0.00000 -45.00020 -0.00001
				CHANNELS 3 Zrotation Xrotation Yrotation
				JOINT RightForeFoot
				{
					OFFSET 0.00000 -3.74820 0.00000
					CHANNELS 3 Zrotation Xrotation Yrotation
					JOINT RightToeBase
					{
						OFFSET 0.00000 0.06325 14.43120
						CHANNELS 3 Zrotation Xrotation Yrotation
						End site
						{
							OFFSET 0.00000 0.00000 0.00000
						}
					}
				}
			}
		}
	}
	JOINT LeftUpLeg
	{
		OFFSET 9.98441 0.00000 0.00000
		CHANNELS 3 Zrotation Xrotation Yrotation
		JOINT LeftLeg
		{
			OFFSET 0.00000 -42.11800 0.00000
			CHANNELS 3 Zrotation Xrotation Yrotation
			JOINT LeftFoot
			{
				OFFSET 0.00000 -45.00070 0.00000
				CHANNELS 3 Zrotation Xrotation Yrotation
				JOINT LeftForeFoot
				{
					OFFSET 0.00000 -3.74824 0.00000
					CHANNELS 3 Zrotation Xrotation Yrotation
					JOINT LeftToeBase
					{
						OFFSET 0.00000 0.06325 14.43110
						CHANNELS 3 Zrotation Xrotation Yrotation
						End site
						{
							OFFSET 0.00000 0.00000 0.00000
						}
					}
				}
			}
		}
	}
}
MOTION
Frames: 4
Frame Time: 0.050000
-0.04181782649482563 -0.014800478196904263 -0.010518546821243152 -0.02536588627207649 -0.004887952125792581 0.023677383504100837 -4.152153856444788 5.821774847456211 -0.5620437944595872 -0.5950919552382916 3.1715012844697372 0.3353249396729983 -0.6993412160392348 -0.4974363125418121 -1.739735427719967 -1.1490006749658783 0.14409915783937036 -0.995696907173515 -1.85465452786273 9.685248774142762 3.9795376673398875 -0.2953436688080324 -1.1286037598898857 7.0365753325151 -1.441153590888812 -15.58998019237314 0.7055267685194404 4.108739130995005 -0.262903896364714 -10.14146084219105 65.62483898915755 7.353785037374471 22.39861907650147 46.65783082432813 18.032009337489363 103.01436135740589 26.55066479473084 0.07434813912173678 -11.022120686402399 4.479099858956617 -0.13475120799704418 -1.5539643508483891 -0.006266013250876017 -0.007141394926122296 -56.2009205043038 0.003964195249585899 -0.016509462757257794 -56.242686952729265 -38.80599589411049 -0.014734001403791237 -0.03903433964283492 -0.039615366440796315 -0.03534742094666119 0.006538257254611677 -0.013999869015114935 0.0002319624797036786 -0.006105292339635378 -36.669127276471286 0.02351119335926771 0.04725182948251048 0.03851628146647815 0.01746698270148328 0.0402729976837322 0.010340958035824651 0.0027076250796358383 0.03187933326389986 -19.80659574274655 0.034551155088350285 -0.01440984676703493 0.00807806963017776 0.006180970581623294 0.004658971636514834 -0.0350040601775645 0.005226607737608605 -0.03389988055844691 24.07432044229588 0.019402791222088524 -0.03700001488972836 28.881545271073193 0.01639320615881288 -0.03367894529858948 28.866346382012424 -0.017845633862561557 -0.043550555490844405 1.759426729285582 0.8626815321256814 9.364424447284012 -64.9124640635187 12.84137058121085 -31.461902070462397 -85.11532127701922 12.063346539623058 -120.55072126212737 -31.957255606171994 -5.499376137032086 3.2363768567167135 -0.4617090355640122 0.10135818558345187 -8.112430730230955 -0.020892652787859782 0.024538404355606204 44.595312172861334 -0.029437660931356004 -0.013588284682101475 44.54315273115419 12.470294475054258 -0.0061493917826161435 0.035974977886472075 -0.011639866578179963 0.001406593558736253 -0.0002901947402161686 0.033560095564702304 0.024139850322957717 -0.004801439239681824 11.082003281937011 -0.006698197329255097 0.014522268175817936 -0.004742874125997283 -0.014867360492113558 -0.03487008141040986 0.011968811058500685 0.03826562074108303 -0.019348049635554528 4.753045887269485 -0.026325072169554625 -0.009774659740725677 -0.037064432528800546 -0.00299687350904707 0.008371218254141924 0.03759897009865905 -0.012690243721670246 -0.005061128903731999 -5.575482052625215 0.014014447260479884 -0.014102589395805961 -6.677784152204411 0.01882081600341327 0.036879480846782116 -6.741126262297268 0.033857506753110854 -0.028807081395363865 0.021525438900948757 -0.04428410127224856 -0.03388719316777723 8.057039048375552 3.4960092941934575 -19.228697115537827 -0.021908498915251078 10.377374504602837 0.019984005438241147 -5.610228839808458 -15.709357054934308 3.2148847259396405 -0.033001263856293005 0.003532526625313721 -0.00826347371653531 -0.011570710175991051 4.702148712671728 0.003216313901534001 12.451524421116583 -8.284248488387378 6.916568943626962 -0.019706763809262152 46.360921839893244 0.0038545311165609853 -4.318289986672564 -14.701241714478847 -3.8689016072506033 0.029440627240265912 -0.013661670596391827 -0.048252815309859996 0.013282847794760213 -10.704166455239847 -0.007930081662889141 
-0.022413032687836364 0.04625364666004661 -0.008544481511607928 -0.02992348245338726 -0.027714589106837603 0.01684745123876526 -3.958740411878824 5.514082841027116 -0.6353095348413095 -0.6095288642367852 3.215804474296605 0.35687224724232824 -0.7371554750642206 -0.5149761683915807 -1.666050370072832 -1.1485995478480957 0.1551053831224739 -0.9449455701701005 -1.8036246792235067 9.801242252055532 3.9830637096695356 -0.2818886127581607 -1.2072369206023894 7.246138620446255 -1.4090807775040013 -15.743750503274706 0.7056506492450914 3.838522672876081 -0.2000167185709426 -10.211482420486044 66.26934718350346 8.307249630500765 21.645351382355926 47.745039022787545 18.730403353694168 102.70129140608553 26.1840838158132 0.02749249586458707 -11.171000380740372 4.563509640318264 -0.12268947652259048 -1.5532637773949203 0.016418598005914522 0.0053628000798066735 -56.21482899609407 -0.019003139100309614 -0.002344852697658151 -56.26046257123459 -38.79331139229244 0.0028967738820474737 0.03452926059548145 0.021727629109778927 0.018192270048688713 -0.008913076105947392 0.048829807923299454 0.0024114524234326003 0.0342983518401296 -36.70682507942731 0.0327100881107192 0.003864172520919518 0.028372438213693906 -0.041951833297436576 0.008535706632314408 0.011050639204519984 0.03932713609129697 0.02144317006195214 -19.710547374118928 0.002718486858731178 0.0296651094329977 -0.014052180056552354 0.03268832767597699 0.04509448954992484 0.04328063123921178 0.042342841037900154 -0.006901202495198864 24.0967378888326 -0.0036653935422771545 -0.04003675026609395 28.86908364186129 0.004455627629552673 -0.01532236130262329 28.896158139418677 -0.01496446101556019 -0.01730029014729255 2.09470203428228 0.8966394582792192 9.409248772844263 -65.74429420703001 14.092787467101981 -30.87045666246604 -87.71421768742181 12.129532074038814 -121.53154359411826 -32.32254725290107 -6.156243579749252 3.906836498484401 -0.45207364206409095 0.03761000814366498 -8.149252318282825 0.021095973345545877 -0.0035335032311987666 44.55111934861393 0.003404073895319801 -0.042052994009695324 44.55359491283759 12.44188367516295 -0.036603349112552315 -0.04219819290420368 0.04805984498135684 -0.030896654429262246 -0.033278132833992634 -0.019908279635684204 0.03680731597826181 0.038960963014159355 11.096383174944485 0.024255920098533258 0.009064150377318994 0.0030328832285330624 -0.03047070965231277 0.0015430046510029485 -0.026890130142391524 0.03541713997272847 0.036560251957369276 4.751218308197177 -0.021843056577368403 0.020822008001094162 0.019003136935323624 -0.034035870834999794 -0.0013384256253628872 0.018668095082854486 0.008346116441750366 -0.036837178602230715 -5.645110141195082 -0.006277599967333005 -0.047264332154423626 -6.736519545702337 -0.025514077410060974 -0.029856257851954626 -6.725003627935787 0.04935093341648056 -0.044653061788444096 -0.005053279526271349 -0.015830567278369515 -0.010338266041258476 8.057837330141446 3.4930659987590937 -19.182060929272943 0.020768598382733844 10.363868757353286 0.02861192702965563 -5.662228561131244 -15.659176818791616 3.195830584952126 -0.04397817881788437 0.004150992649582805 0.0035422965636499972 -0.007946652365527853 4.7196245173366185 0.012794971285841306 12.466249663848243 -8.211372884492404 6.8564713129706805 0.016346849219899897 46.34520244399416 0.01076648563775536 -4.31719032599332 -14.712365724216268 -3.862639128639588 0.022609906635213815 0.017995492904582827 0.007871822925349997 0.0262985283808957 -10.708105191672134 0.04331246666151582 
-0.03777866567987197 0.005457909151426344 -0.005433863625658491 -0.005654493395217254 0.033448489513644174 -0.037608270324142754 -3.746567350704139 5.252930347100173 -0.6121267271935691 -0.6445785291115821 3.250722022835475 0.36815671278713774 -0.7314592264975424 -0.6058534248028408 -1.6360853717470798 -1.2144775069695692 0.12660249096025747 -0.9058653785627842 -1.7687612555197376 9.96809892429126 3.9418061172334564 -0.2798480566199199 -1.2652802335009874 7.313347556993176 -1.3704410097046336 -15.9675938635266 0.6876342013193776 3.1826654871909486 -0.019193005954813158 -10.421159347897262 67.41112064175624 9.074732640716848 21.192891510701557 48.23633192577749 19.362331777021343 102.34631940990826 25.510067210100164 0.026086118211025754 -11.086555343172297 4.520985418214763 -0.08564627956145074 -1.5450399933247358 -0.04439178952112065 0.00937102399066446 -56.246724479966744 -0.015955862519202522 0.002227475619953469 -56.26495131154247 -38.75461112296596 0.013503298558129028 0.033709602258832724 -0.0011062710778910337 0.03754673996709192 0.020151175432543873 0.012587019492307078 -0.0008875103538012469 -0.025911130555432794 -36.72189897996862 -0.015296505984487141 0.005327295409319167 0.03221674397855276 0.006001957374410575 -0.003978073360680372 0.015159365651319407 0.02117752440020954 -0.000352875543030514 -19.714509224693106 -0.012569552242611566 -0.001437230072436885 0.014384896645366905 0.028483839412596513 0.021433718100312336 0.022505006118733236 0.0007999414630456944 0.04590105361246438 24.082041128953804 0.008989207849387145 0.005610181714939009 28.891350683683726 -0.005651731427921405 0.04475118211506436 28.899036584074015 -0.031778345489533656 -0.020541600272907055 2.6110621054773886 1.0274204094775201 9.454053085606095 -66.77869657661917 15.306278168469706 -30.391408235020467 -89.47506375076142 12.341066279353353 -122.32166713881772 -32.273709206576974 -6.747086118115093 4.581240764749444 -0.49692476545917347 0.0751675591355053 -8.156496952250818 -0.004126034501680722 0.0054550292772999175 44.568246984009576 0.009724365377930585 0.0036353628114349115 44.59994894329952 12.422390926001748 -0.042716346871299445 0.021152357529813298 0.037064903149923216 0.01758518452035039 0.04369267641180488 -0.003938429772064534 -0.02799448032106744 0.01005811172499414 11.140443123941363 0.0309123459512875 0.02357774979803326 -0.006659911276561468 0.001317092222098436 -0.03345059810689922 0.01169945592972797 -0.0038361759153493448 -0.0380798576039757 4.80418293827247 0.010235476477864179 0.01922467818634661 -0.006019768454016248 0.00027473200452095736 -0.04882833379275391 -0.029682551274446956 -0.02329362260510995 -0.002207135637269372 -5.63549643756793 -0.012603785330089717 -0.03198601486204225 -6.677010692475203 0.0071661895564252495 -0.0073458956116695525 -6.7604850227948665 -0.02923001723713073 -0.03702681549109531 0.03769991222740846 -0.00940243090889188 -0.018001800660925257 8.087820627575805 3.461744849273586 -19.21903084789917 0.01859146624878888 10.420404224538999 0.009442420981939755 -5.628933833019354 -15.676962465303657 3.1827208104715488 0.016415824272838043 0.03566770074938461 -0.03536788840532504 0.006068654550928708 4.703359596122724 0.048750023419703796 12.420711893996963 -8.236696233270987 6.882209156344849 0.00482059720995779 46.370318301924605 -0.023111528143959476 -4.329582350374534 -14.786798017006193 -3.809854333895023 -0.02177018010151148 -0.01231645806077566 -0.008792491848206626 -0.03310752382389928 -10.78991304629131 -0.01452538363146818 
-0.03152651778398854 0.027782294620665227 0.03725614818355993 0.02515234717825651 -0.04749983001281324 0.02492541959169527 -3.4126866333754173 4.85413589979707 -0.6854949551027909 -0.6289297662539173 3.2777250466995795 0.35346227092887583 -0.7373506717675872 -0.6977608664259605 -1.5596865962735722 -1.194919414505758 -0.0019128976251347428 -0.8696604696444565 -1.71368574236658 10.197603224576543 3.8279363392553982 -0.2199662400809574 -1.2688072566651016 7.068162540759412 -1.233987778712459 -16.107462418607156 0.6854180679512695 2.4054022695683717 0.2766974797035379 -10.660669223286078 68.88240258095178 9.323593501944906 20.65529153373699 48.52669733194031 20.11032815690611 101.90186536092551 24.78287158806353 -0.042929162194014596 -10.995112813686077 4.485350332945132 -0.11650116614395788 -1.604900507665039 -0.008834944314811077 0.021020555207721267 -56.22323808928553 0.012932415379271698 -0.0427635737139924 -56.21567318562331 -38.78396028956504 -0.01424948106334791 -0.024218509705758222 0.0031786619776418084 0.04197860410895889 -0.02243238130525276 0.03676813776683354 -0.007478336522021222 0.004065537155397191 -36.69228335824819 0.020780546629448025 0.04230053260208438 -0.025335777744411644 -0.011537546782609289 0.03043523918896867 -0.01342368981159067 0.04313357834794747 -0.040151151183198903 -19.78417078112538 0.008823199594641656 -0.035123280405858465 -0.029713386832749017 -0.0012763381672087576 -0.012019467804236532 -0.005576513201452313 -0.04899753649274441 0.02294654848697088 24.028072049265212 -0.006265596140502379 -0.048685258713276065 28.867178602459287 0.03293813282068217 -0.020923477126324818 28.839765243155647 -0.03438378389836803 -0.04481963756618993 3.323747026796814 1.1785949340358481 9.611128132737456 -68.03758726151315 16.247239019302018 -29.82049047832098 -90.44941387083149 13.004349798884355 -123.09251424227116 -32.302745208359525 -7.309354359186753 5.244339265748367 -0.4908714807966152 0.028878749746166762 -8.104721919609664 -0.03648943966793085 0.015083152634992046 44.56842812245437 -0.013284693539123888 0.027105705047739116 44.55893757828848 12.461111851506084 -0.0013979055069268127 0.01606944371664988 0.04494444695261204 -0.002587358724352691 -0.004671552557951695 -0.04595002921583064 -0.01646328773727704 -0.01673065817449911 11.106947782976073 -0.037542749851067245 -0.007331274914030028 -0.039944314225807756 0.0025806801691496237 0.012223354131369468 -0.041463323579827835 0.005315122613740768 0.005355794529484478 4.7892318723919525 -0.0049409783513221055 -0.04560077243935234 0.03779270509251834 -0.04856973060266299 0.01286890248380938 0.02405865767801198 0.017812705470009113 -0.022968699338920293 -5.622291357968111 0.03664932163652908 0.021517814902476007 -6.746768001365215 0.01955741188953657 0.017105104056034333 -6.731988050095093 -0.021994274445609384 0.002939558554683364 0.048851210293419656 -0.0036674827516731748 -0.024080789787472467 7.995805178854253 3.4842231201502663 -19.218334573277158 0.03498624362640171 10.346236706344802 0.036180769723408474 -5.643253500252296 -15.632010484954533 3.191847252826214 -0.01216032778224319 -0.033205124314798766 -0.007714215067855248 0.007981806465181174 4.729921427932316 0.011658468271207123 12.506068081235618 -8.267184157254398 6.891800956803522 0.04203157149335517 46.34505521778302 0.013329987202976377 -4.3231219220854715 -14.699973353868536 -3.864350696237535 -0.03131406600371817 0.020934973873155887 0.0336985813699598 -0.00682233451956348 -10.783417052314313 0.015122671698743288 
